<svg version="1.2" xmlns="http://www.w3.org/2000/svg" viewBox="0 0 173 50" width="173" height="50">
	<title>it_services_logo (1)</title>
	<style>
		tspan { white-space:pre } 
		.t0 { font-size: 15px;fill: #ffffff;font-weight: 700;font-family: "DejaVuSans-Bold", "DejaVu Sans" } 
		.s1 { fill: #ffffff } 
		.s2 { fill: #ff8700 } 
	</style>
	<text id="SE Version" style="transform: matrix(1,0,0,1,65,35)" >
		<tspan x="0" y="11.4" class="t0">S</tspan><tspan  y="11.4" class="t0">E</tspan><tspan  y="11.4" class="t0"> </tspan><tspan  y="11.4" class="t0">V</tspan><tspan  y="11.4" class="t0">e</tspan><tspan  y="11.4" class="t0">r</tspan><tspan  y="11.4" class="t0">s</tspan><tspan  y="11.4" class="t0">i</tspan><tspan  y="11.4" class="t0">o</tspan><tspan  y="11.4" class="t0">n
</tspan>
	</text>
	<path class="s1" d="m41 16.3c-2.1 0-4.1 0.4-5.9 1.1q0 0.3 0 0.7 0 1.9-0.5 3.7c1.9-1 4.1-1.7 6.4-1.7 7.1 0 12.8 5.8 12.8 12.8 0 7.1-5.7 12.8-12.8 12.8-7 0-12.8-5.7-12.8-12.8q0-0.7 0.1-1.4-1.8 1.3-3.9 2.1c0.3 8.9 7.7 16 16.6 16h15.7c0.5 0 1-0.5 1-1v-15.7c0-9.2-7.5-16.6-16.7-16.6z"/>
	<path fill-rule="evenodd" class="s1" d="m0 16.7c0-9.2 7.5-16.7 16.7-16.7 9.2 0 16.6 7.5 16.6 16.7 0 9.2-7.5 16.6-16.6 16.6h-15.7c-0.6 0-1-0.4-1-1zm3.9 0c0 7.1 5.7 12.8 12.8 12.8 7 0 12.7-5.7 12.7-12.8 0-7-5.7-12.8-12.7-12.8-7.1 0-12.8 5.8-12.8 12.8z"/>
	<path class="s2" d="m13 16.7c0 1.1-0.9 2-2 2-1.1 0-2-0.9-2-2 0-1.1 0.9-2 2-2 1.1 0 2 0.9 2 2z"/>
	<path class="s2" d="m18.9 16.7c0 1.1-0.9 2-2 2-1.1 0-2-0.9-2-2 0-1.1 0.9-2 2-2 1.1 0 2 0.9 2 2z"/>
	<path class="s2" d="m24.6 16.7c0 1.1-0.9 2-2 2-1.1 0-2-0.9-2-2 0-1.1 0.9-2 2-2 1.1 0 2 0.9 2 2z"/>
	<path fill-rule="evenodd" class="s2" d="m50.1 30.8v4.2h-2q-0.2 0.8-0.6 1.4l1.4 1.4-2.9 3-1.5-1.4q-0.6 0.3-1.4 0.6v2h-4.2v-2q-0.7-0.3-1.4-0.6l-1.4 1.4-2.9-3 1.4-1.4q-0.4-0.6-0.6-1.4h-2v-4.2h2q0.2-0.7 0.6-1.4l-1.4-1.4 2.9-2.9 1.4 1.3q0.7-0.3 1.4-0.6v-1.9h4.2v1.9q0.8 0.3 1.5 0.6l1.4-1.3 2.9 2.9-1.4 1.4q0.4 0.7 0.6 1.4zm-14 2.1c0 2.7 2.2 4.9 4.9 4.9 2.8 0 4.9-2.2 4.9-4.9 0-2.7-2.2-4.9-4.9-4.9-2.7 0-4.9 2.2-4.9 4.9z"/>
	<path class="s1" d="m171.5 26.5q-0.6-0.7-1.9-1.3l-1.7-0.6q-0.8-0.4-1-0.6-0.2-0.2-0.2-0.6-0.1-0.4 0.4-0.7 0.4-0.2 1.2-0.2 1.2 0 2.1 0.3 0.5 0.1 0.6 0.1 0.4 0 0.4-0.5v-0.9q0-0.4-0.1-0.5-0.1-0.2-0.4-0.3-1.3-0.5-2.8-0.5-2 0-3.2 0.9-1.1 0.9-1.1 2.4 0 1.1 0.5 1.9 0.6 0.7 1.9 1.2l1.7 0.7q0.8 0.3 1 0.5 0.3 0.3 0.3 0.7 0 1.1-1.6 1.1-0.8 0-1.6-0.2-0.9-0.1-1.6-0.3-0.2-0.1-0.3-0.1-0.4 0-0.4 0.5v1q0 0.3 0.1 0.4 0.1 0.2 0.4 0.3 1.5 0.7 3.4 0.7 2 0 3.2-1 1.3-1 1.3-2.6-0.1-1.1-0.6-1.8z"/>
	<path fill-rule="evenodd" class="s1" d="m162 26.3q-0.1 0.3-0.2 0.4-0.1 0.1-0.4 0.1h-6.2q0.1 1.4 0.9 2.1 0.7 0.6 2.4 0.6 1.2 0 2.8-0.4 0 0 0.1-0.1 0 0 0.1 0 0.3 0 0.4 0.5v1q0 0.4-0.1 0.5-0.1 0.1-0.4 0.3-1.6 0.6-3.5 0.6-2.7 0-4.2-1.5-1.4-1.5-1.4-4.4 0-2.7 1.4-4.3 1.4-1.5 4-1.5 2.1 0 3.2 1.2 1.2 1.2 1.2 3.3 0 0.7-0.1 1.6zm-6.8-1.4h4.2v-0.4q0-2.1-1.9-2.1-1 0-1.6 0.6-0.6 0.7-0.7 1.9z"/>
	<path class="s1" d="m150.5 29.1q-0.1 0-0.4 0-0.9 0.3-1.7 0.3-1.5 0-2.2-0.8-0.7-0.8-0.7-2.4v-0.3q0-1.7 0.7-2.4 0.7-0.8 2.2-0.8 0.9 0 1.8 0.3 0 0 0.1 0 0.1 0 0.1 0 0.4 0 0.4-0.5v-1q0-0.3-0.1-0.5-0.1-0.1-0.4-0.2-1.1-0.5-2.4-0.5-2.6 0-4.1 1.5-1.5 1.6-1.5 4.3 0 2.7 1.4 4.2 1.4 1.5 4 1.5 0.7 0 1.4-0.1 0.6-0.1 1.3-0.4 0.2-0.1 0.3-0.2 0.1-0.2 0.1-0.5v-1.1q0-0.4-0.3-0.4z"/>
	<path class="s1" d="m139.7 20.7q-0.1-0.2-0.4-0.2h-2.1q-0.3 0-0.4 0.2-0.1 0.1-0.1 0.4v9.9q0 0.3 0.1 0.4 0.1 0.1 0.4 0.1h2.1q0.3 0 0.4-0.1 0.1-0.1 0.1-0.4v-9.9q0-0.3-0.1-0.4z"/>
	<path class="s1" d="m139.5 15.9q-0.5-0.4-1.3-0.4-0.8 0-1.3 0.4-0.5 0.5-0.5 1.3 0 0.7 0.5 1.2 0.5 0.4 1.3 0.4 0.8 0 1.3-0.4 0.5-0.5 0.5-1.2 0-0.8-0.5-1.3z"/>
	<path class="s1" d="m134.4 20.5h-2.1q-0.3 0-0.5 0.2-0.1 0.1-0.2 0.4l-2.3 7.6-2.2-7.6q-0.1-0.3-0.3-0.4-0.1-0.2-0.5-0.2h-2.1q-0.4 0-0.4 0.4 0 0.1 0 0.2 0 0.1 0.1 0.3l3.7 9.6q0.1 0.2 0.2 0.3 0.1 0.1 0.2 0.2 0.2 0 0.4 0h1.8q0.3 0 0.4 0 0.1-0.1 0.2-0.2 0.1-0.1 0.2-0.3l3.7-9.6q0.1-0.2 0.1-0.3 0-0.1 0-0.2 0-0.4-0.4-0.4z"/>
	<path class="s1" d="m122.4 20.6q-0.1-0.2-0.4-0.2h-0.3q-0.9 0-1.6 0.4-0.8 0.4-1.6 1.4l-0.3-1.2q-0.1-0.5-0.6-0.5h-1.6q-0.3 0-0.4 0.2-0.1 0.1-0.1 0.4v9.9q0 0.3 0.1 0.4 0.1 0.1 0.4 0.1h2.1q0.3 0 0.4-0.1 0.1-0.1 0.1-0.4v-7.2q0.5-0.2 1.2-0.4 0.7-0.1 1.2-0.1 0.4 0 0.6 0 0.3 0 0.4 0 0.3 0 0.4-0.1 0.2-0.1 0.2-0.4v-1.8q0-0.3-0.2-0.4z"/>
	<path fill-rule="evenodd" class="s1" d="m113 26.3q-0.1 0.3-0.2 0.4-0.1 0.1-0.4 0.1h-6.2q0.1 1.4 0.9 2.1 0.7 0.6 2.4 0.6 1.2 0 2.7-0.4 0.1 0 0.2-0.1 0 0 0.1 0 0.3 0 0.3 0.5v1q0 0.4-0.1 0.5-0.1 0.1-0.3 0.3-1.7 0.6-3.5 0.6-2.8 0-4.2-1.5-1.4-1.5-1.4-4.4 0-2.7 1.4-4.3 1.4-1.5 3.9-1.5 2.2 0 3.3 1.2 1.2 1.2 1.2 3.3 0 0.7-0.1 1.6zm-6.8-1.4h4.2v-0.4q0-2.1-1.9-2.1-1 0-1.6 0.6-0.7 0.7-0.7 1.9z"/>
	<path class="s1" d="m100.5 24.6q-0.8-1-2.8-1.7l-1.6-0.6q-1.2-0.4-1.7-0.8-0.4-0.4-0.4-1 0-1.7 2.5-1.7 0.7 0 1.5 0.2 0.9 0.1 1.6 0.3 0.4 0.1 0.5 0.1 0.3 0 0.3-0.5v-1.3q0-0.3-0.1-0.5-0.1-0.2-0.4-0.2-1.8-0.6-3.6-0.6-2.5 0-4 1.2-1.5 1.2-1.5 3.2 0 1.6 0.8 2.6 0.9 1 2.8 1.7l1.6 0.6q1.3 0.5 1.7 0.9 0.4 0.4 0.4 1 0 0.9-0.7 1.4-0.7 0.4-1.9 0.4-1.7 0-3.8-0.5-0.1-0.1-0.2-0.1-0.1 0-0.2 0-0.3 0-0.3 0.5v1.3q0 0.3 0.1 0.5 0.1 0.2 0.3 0.3 1.9 0.6 4 0.6 2.8 0 4.4-1.3 1.6-1.3 1.6-3.5 0-1.5-0.9-2.5z"/>
	<path class="s1" d="m83.7 16.7q-0.1-0.1-0.4-0.1h-11.2q-0.3 0-0.4 0.1-0.2 0.2-0.2 0.5v1.5q0 0.2 0.2 0.4 0.1 0.1 0.4 0.1h4v11.8q0 0.3 0.1 0.4 0.1 0.1 0.4 0.1h2.2q0.3 0 0.4-0.1 0.1-0.1 0.1-0.4v-11.8h4q0.3 0 0.4-0.1 0.2-0.2 0.2-0.4v-1.5q-0.1-0.3-0.2-0.5z"/>
	<path class="s1" d="m69.4 16.7q-0.2-0.1-0.5-0.1h-2.1q-0.3 0-0.4 0.1-0.2 0.2-0.2 0.5v13.8q0 0.3 0.2 0.4 0.1 0.1 0.4 0.1h2.1q0.3 0 0.5-0.1 0.1-0.1 0.1-0.4v-13.8q0-0.3-0.1-0.5z"/>
</svg>